<?xml version="1.0" encoding="UTF-8"?>
<svg version="1.1" xmlns="http://www.w3.org/2000/svg" width="380" height="380">
<path d="M0 0 C0.84236196 -0.00367669 1.68472392 -0.00735338 2.55261201 -0.01114148 C5.37420747 -0.02215088 8.19576606 -0.02601758 11.01737976 -0.02983093 C13.04139319 -0.03609791 15.06540547 -0.04274491 17.0894165 -0.04974365 C23.73816632 -0.07076755 30.38691631 -0.08114798 37.03569031 -0.09111023 C39.3288391 -0.09515912 41.62198778 -0.09927608 43.91513634 -0.10346031 C54.69531734 -0.12251232 65.47549151 -0.13674047 76.2556861 -0.14507228 C88.6738579 -0.15482972 101.09185073 -0.18111025 113.50995952 -0.22157317 C123.1229712 -0.25181367 132.73593184 -0.26654887 142.34899014 -0.26985329 C148.08284175 -0.27219571 153.8165022 -0.28104983 159.55030251 -0.30631447 C164.95367838 -0.32973768 170.35673917 -0.3337715 175.76015282 -0.32355309 C177.73205493 -0.32306098 179.70397331 -0.32928413 181.67582703 -0.34310913 C208.33680678 -0.51941298 231.34307382 7.39080115 250.79350281 26.24482727 C263.12819064 38.68819076 270.692923 54.21782448 274.60990906 71.14717102 C274.78613391 71.8607587 274.96235876 72.57434637 275.14392376 73.30955791 C275.75906811 77.05547366 275.75797024 80.75263395 275.75708008 84.53726196 C275.76075677 85.37962393 275.76443345 86.22198589 275.76822156 87.08987397 C275.77923096 89.91146943 275.78309766 92.73302802 275.78691101 95.55464172 C275.79317798 97.57865515 275.79982499 99.60266744 275.80682373 101.62667847 C275.82784762 108.27542828 275.83822805 114.92417827 275.84819031 121.57295227 C275.8522392 123.86610107 275.85635616 126.15924975 275.86054039 128.4523983 C275.8795924 139.2325793 275.89382055 150.01275347 275.90215236 160.79294807 C275.9119098 173.21111986 275.93819033 185.62911269 275.97865325 198.04722148 C276.00889374 207.66023317 276.02362895 217.27319381 276.02693337 226.88625211 C276.02927578 232.62010371 276.03812991 238.35376416 276.06339455 244.08756447 C276.08681776 249.49094034 276.09085158 254.89400114 276.08063316 260.29741478 C276.08014106 262.2693169 276.08636421 264.24123528 276.10018921 266.21308899 C276.27649306 292.87406874 268.36627893 315.88033578 249.51225281 335.33076477 C237.06888932 347.6654526 221.5392556 355.23018496 204.60990906 359.14717102 C203.89632138 359.32339587 203.18273371 359.49962072 202.44752216 359.68118572 C198.70160642 360.29633007 195.00444612 360.2952322 191.21981812 360.29434204 C190.37745615 360.29801873 189.53509419 360.30169542 188.66720611 360.30548352 C185.84561065 360.31649293 183.02405205 360.32035962 180.20243835 360.32417297 C178.17842493 360.33043995 176.15441264 360.33708696 174.13040161 360.34408569 C167.4816518 360.36510959 160.83290181 360.37549002 154.18412781 360.38545227 C151.89097901 360.38950116 149.59783033 360.39361812 147.30468178 360.39780235 C136.52450078 360.41685436 125.74432661 360.43108252 114.96413201 360.43941432 C102.54596022 360.44917176 90.12796738 360.47545229 77.7098586 360.51591522 C68.09684691 360.54615571 58.48388627 360.56089091 48.87082797 360.56419533 C43.13697636 360.56653775 37.40331592 360.57539187 31.66951561 360.60065651 C26.26613974 360.62407972 20.86307894 360.62811354 15.4596653 360.61789513 C13.48776318 360.61740302 11.5158448 360.62362618 9.54399109 360.63745117 C-17.11698867 360.81375503 -40.1232557 352.9035409 -59.57368469 334.04951477 C-71.90837252 321.60615128 -79.47310488 306.07651756 -83.39009094 289.14717102 C-83.56631579 288.43358335 -83.74254065 287.71999567 -83.92410564 286.98478413 C-84.53924999 283.23886838 -84.53815212 279.54170809 -84.53726196 275.75708008 C-84.54093865 274.91471812 -84.54461534 274.07235615 -84.54840344 273.20446807 C-84.55941285 270.38287261 -84.56327954 267.56131402 -84.5670929 264.73970032 C-84.57335987 262.71568689 -84.58000688 260.69167461 -84.58700562 258.66766357 C-84.60802951 252.01891376 -84.61840994 245.37016377 -84.62837219 238.72138977 C-84.63242108 236.42824097 -84.63653805 234.1350923 -84.64072227 231.84194374 C-84.65977428 221.06176274 -84.67400244 210.28158857 -84.68233424 199.50139397 C-84.69209168 187.08322218 -84.71837221 174.66522935 -84.75883514 162.24712056 C-84.78907563 152.63410887 -84.80381083 143.02114823 -84.80711526 133.40808994 C-84.80945767 127.67423833 -84.81831179 121.94057788 -84.84357643 116.20677757 C-84.86699964 110.8034017 -84.87103346 105.40034091 -84.86081505 99.99692726 C-84.86032294 98.02502514 -84.8665461 96.05310677 -84.88037109 94.08125305 C-85.05667495 67.4202733 -77.14646082 44.41400626 -58.29243469 24.96357727 C-45.8490712 12.62888944 -30.31943748 5.06415708 -13.39009094 1.14717102 C-12.67650327 0.97094617 -11.96291559 0.79472132 -11.22770405 0.61315632 C-7.4817883 -0.00198803 -3.78462801 -0.00089016 0 0 Z M-52.04243469 38.35420227 C-67.81179372 57.11475419 -71.86480431 77.73655804 -71.77827454 101.60420227 C-71.78234945 103.51308999 -71.78769645 105.42197535 -71.79420471 107.33085632 C-71.80777473 112.47136701 -71.80262266 117.61169521 -71.79306746 122.75220871 C-71.78541698 128.15836288 -71.79253131 133.5645025 -71.79722595 138.97065735 C-71.80266792 148.04547399 -71.79553296 157.12021713 -71.78120422 166.19502258 C-71.76488076 176.65323051 -71.77017038 187.11126291 -71.78668344 197.56946659 C-71.80034289 206.58480603 -71.80219625 215.60009296 -71.79436743 224.61543941 C-71.78971535 229.98408824 -71.78899764 235.35265484 -71.7989769 240.72129822 C-71.80770948 245.77103933 -71.80151095 250.82055642 -71.78429413 255.87027359 C-71.78036264 257.71197261 -71.78140525 259.55369082 -71.78808212 261.39538193 C-71.86922683 286.07248495 -66.04239317 306.94693811 -48.70259094 325.39717102 C-30.09423076 343.14002608 -7.79842318 347.62550152 17.06694031 347.53535461 C18.97582803 347.53942953 20.88471339 347.54477653 22.79359436 347.55128479 C27.93410504 347.56485481 33.07443325 347.55970274 38.21494675 347.55014753 C43.62110091 347.54249706 49.02724054 347.54961139 54.43339539 347.55430603 C63.50821202 347.559748 72.58295517 347.55261304 81.65776062 347.5382843 C92.11596855 347.52196084 102.57400095 347.52725045 113.03220463 347.54376352 C122.04754407 347.55742296 131.06283099 347.55927633 140.07817745 347.55144751 C145.44682627 347.54679543 150.81539287 347.54607772 156.18403625 347.55605698 C161.23377736 347.56478956 166.28329445 347.55859103 171.33301163 347.54137421 C173.17471064 347.53744272 175.01642886 347.53848533 176.85811996 347.5451622 C201.53522299 347.62630691 222.40967615 341.79947325 240.85990906 324.45967102 C258.60276412 305.85131084 263.08823956 283.55550326 262.99809265 258.69013977 C263.00216757 256.78125205 263.00751457 254.87236669 263.01402283 252.96348572 C263.02759285 247.82297503 263.02244078 242.68264683 263.01288557 237.54213333 C263.0052351 232.13597916 263.01234943 226.72983954 263.01704407 221.32368469 C263.02248603 212.24886805 263.01535108 203.17412491 263.00102234 194.09931946 C262.98469888 183.64111153 262.98998849 173.18307913 263.00650156 162.72487545 C263.020161 153.70953601 263.02201436 144.69424908 263.01418555 135.67890263 C263.00953346 130.31025381 263.00881576 124.9416872 263.01879501 119.57304382 C263.0275276 114.52330271 263.02132906 109.47378563 263.00411224 104.42406845 C263.00018075 102.58236944 263.00122337 100.74065122 263.00790024 98.89896011 C263.08904494 74.22185709 257.26221128 53.34740393 239.92240906 34.89717102 C221.31404887 17.15431596 199.0182413 12.66884052 174.15287781 12.75898743 C172.24399009 12.75491251 170.33510473 12.74956551 168.42622375 12.74305725 C163.28571307 12.72948723 158.14538487 12.7346393 153.00487137 12.74419451 C147.5987172 12.75184498 142.19257758 12.74473065 136.78642273 12.74003601 C127.71160609 12.73459404 118.63686295 12.741729 109.5620575 12.75605774 C99.10384957 12.7723812 88.64581717 12.76709159 78.18761349 12.75057852 C69.17227404 12.73691908 60.15698712 12.73506571 51.14164066 12.74289453 C45.77299184 12.74754661 40.40442524 12.74826432 35.03578186 12.73828506 C29.98604075 12.72955248 24.93652366 12.73575101 19.88680649 12.75296783 C18.04510747 12.75689933 16.20338926 12.75585671 14.36169815 12.74917984 C-11.38307819 12.66452435 -33.72932469 19.14776983 -52.04243469 38.35420227 Z " fill="#000000" transform="translate(94.39009094238281,9.852828979492188)"/>
<path d="M0 0 C2.40832094 3.61248141 2.72360855 4.73874968 2 9 C0.41381836 11.07348633 0.41381836 11.07348633 -1.53515625 13.20703125 C-2.50207397 14.27594604 -2.50207397 14.27594604 -3.48852539 15.36645508 C-3.98731201 15.9055249 -4.48609863 16.44459473 -5 17 C-3.72879807 17.00808685 -2.45759613 17.01617371 -1.14787292 17.02450562 C10.81550929 17.10189536 22.77877677 17.1896164 34.74200916 17.28752708 C40.89284307 17.33753328 47.04365943 17.38386295 53.19458008 17.421875 C59.12741092 17.45867314 65.06009652 17.50501817 70.99280357 17.55806351 C73.25945177 17.57663658 75.52613114 17.59173369 77.7928257 17.60334396 C80.96075021 17.62015652 84.12833997 17.64917959 87.29614258 17.68115234 C88.71062683 17.68439262 88.71062683 17.68439262 90.15368652 17.68769836 C91.01605423 17.69886185 91.87842194 17.71002533 92.766922 17.7215271 C93.51633969 17.72705786 94.26575739 17.73258862 95.03788471 17.73828697 C97 18 97 18 100 20 C100.9339591 22.80187731 101.13337685 24.52799641 101.15390015 27.42721558 C101.16250061 28.33284241 101.17110107 29.23846924 101.17996216 30.17153931 C101.18635208 31.65839737 101.18635208 31.65839737 101.19287109 33.17529297 C101.20513733 34.74398132 101.20513733 34.74398132 101.21765137 36.34436035 C101.24249531 39.81029689 101.25901682 43.27619257 101.2734375 46.7421875 C101.27876118 47.92471226 101.28408485 49.10723701 101.28956985 50.32559586 C101.31629407 56.58180341 101.33567339 62.83799103 101.35009766 69.09423828 C101.366765 75.56320054 101.41156298 82.03165529 101.4624691 88.50042534 C101.4960791 93.4692139 101.50766813 98.43788091 101.51332474 103.40677261 C101.52005191 105.79184992 101.53531172 108.17691883 101.55921555 110.56188583 C101.5907414 113.89698819 101.59092247 117.23070648 101.58349609 120.56591797 C101.59990143 121.55310822 101.61630676 122.54029846 101.63320923 123.55740356 C101.59373447 127.88175345 101.38682612 130.36094184 99.1146698 134.1146698 C94.59702372 136.84923081 90.77238374 136.67748751 85.58178711 136.59936523 C84.53409653 136.60330795 83.48640594 136.60725067 82.40696716 136.61131287 C78.94660513 136.61802145 75.48756442 136.58886327 72.02734375 136.55859375 C69.62268835 136.55434355 67.21802885 136.55201507 64.81336975 136.55152893 C59.77537426 136.54536305 54.73782328 136.52265877 49.69995117 136.48706055 C43.23782096 136.44176405 36.77609323 136.42703334 30.31381893 136.42332363 C25.34932984 136.4188978 20.38492545 136.40359914 15.4204731 136.3844471 C13.03740702 136.37555986 10.6543319 136.36883231 8.27125359 136.36428642 C4.94362017 136.35525662 1.61635284 136.33287681 -1.71118164 136.30639648 C-2.69882507 136.30573181 -3.68646851 136.30506714 -4.70404053 136.30438232 C-6.06454277 136.28941963 -6.06454277 136.28941963 -7.45252991 136.27415466 C-8.23877778 136.26950416 -9.02502565 136.26485365 -9.83509922 136.26006222 C-12.29512986 135.96454705 -13.90258729 135.30668216 -16 134 C-18.29085459 129.41829082 -17.275239 123.09273521 -17.3125 118.0625 C-17.34150391 116.76119141 -17.37050781 115.45988281 -17.40039062 114.11914062 C-17.41295898 112.25225586 -17.41295898 112.25225586 -17.42578125 110.34765625 C-17.44036377 109.20304932 -17.45494629 108.05844238 -17.4699707 106.87915039 C-17 104 -17 104 -15.19995117 102.09545898 C-11.86606157 100.43535882 -9.52445666 101.08625198 -6 102 C-4 105 -4 105 -4 122 C26.03 122 56.06 122 87 122 C87 91.97 87 61.94 87 31 C41.46 31.495 41.46 31.495 -5 32 C-2.69 34.64 -0.38 37.28 2 40 C2.64407189 43.41358101 2.63262266 44.88360708 0.9375 47.875 C-2.12085093 49.65081667 -4.52548599 49.32474874 -8 49 C-10.70654297 47.15161133 -10.70654297 47.15161133 -13.2421875 44.58203125 C-14.16257813 43.65712891 -15.08296875 42.73222656 -16.03125 41.77929688 C-16.49789062 41.29195068 -16.96453125 40.80460449 -17.4453125 40.30249023 C-18.87283176 38.8147597 -20.32760804 37.35862588 -21.7890625 35.90429688 C-29.93621479 27.59028906 -29.93621479 27.59028906 -30 23 C-28.24954879 19.22689389 -25.77016228 16.52310129 -22.83984375 13.609375 C-21.6497168 12.42214844 -21.6497168 12.42214844 -20.43554688 11.2109375 C-19.61119141 10.39882812 -18.78683594 9.58671875 -17.9375 8.75 C-17.10927734 7.92242187 -16.28105469 7.09484375 -15.42773438 6.2421875 C-7.51685968 -1.61075565 -7.51685968 -1.61075565 0 0 Z " fill="#000000" transform="translate(176,141)"/>
<path d="M0 0 C1.04769058 -0.00394272 2.09538116 -0.00788544 3.17481995 -0.01194763 C6.63518197 -0.01865621 10.09422269 0.01050196 13.55444336 0.04077148 C15.95909876 0.04502168 18.36375825 0.04735017 20.76841736 0.0478363 C25.80641285 0.05400219 30.84396383 0.07670647 35.88183594 0.11230469 C42.34396615 0.15760118 48.80569388 0.1723319 55.26796818 0.1760416 C60.23245727 0.18046744 65.19686166 0.1957661 70.16131401 0.21491814 C72.54438009 0.22380538 74.92745521 0.23053293 77.31053352 0.23507881 C80.63816694 0.24410861 83.96543427 0.26648842 87.29296875 0.29296875 C88.28061218 0.29363342 89.26825562 0.2942981 90.28582764 0.29498291 C91.64632988 0.3099456 91.64632988 0.3099456 93.03431702 0.32521057 C93.82056489 0.32986108 94.60681276 0.33451159 95.41688633 0.33930302 C97.87691697 0.63481819 99.4843744 1.29268307 101.58178711 2.59936523 C103.8726417 7.18107442 102.85702611 13.50663002 102.89428711 18.53686523 C102.93779297 20.48882812 102.93779297 20.48882812 102.98217773 22.48022461 C102.99055664 23.72481445 102.99893555 24.9694043 103.00756836 26.25170898 C103.02215088 27.39631592 103.0367334 28.54092285 103.05175781 29.72021484 C102.58178711 32.59936523 102.58178711 32.59936523 100.78173828 34.50390625 C97.44784868 36.16400642 95.10624377 35.51311326 91.58178711 34.59936523 C89.58178711 31.59936523 89.58178711 31.59936523 89.58178711 14.59936523 C59.55178711 14.59936523 29.52178711 14.59936523 -1.41821289 14.59936523 C-1.41821289 44.62936523 -1.41821289 74.65936523 -1.41821289 105.59936523 C44.12178711 105.10436523 44.12178711 105.10436523 90.58178711 104.59936523 C88.27178711 101.95936523 85.96178711 99.31936523 83.58178711 96.59936523 C82.93771522 93.18578422 82.94916445 91.71575816 84.64428711 88.72436523 C87.70263804 86.94854856 90.1072731 87.27461649 93.58178711 87.59936523 C96.28833008 89.44775391 96.28833008 89.44775391 98.82397461 92.01733398 C99.74436523 92.94223633 100.66475586 93.86713867 101.61303711 94.82006836 C102.07967773 95.30741455 102.54631836 95.79476074 103.02709961 96.296875 C104.45461887 97.78460554 105.90939515 99.24073935 107.37084961 100.69506836 C115.5180019 109.00907617 115.5180019 109.00907617 115.58178711 113.59936523 C112.92305066 119.27730775 108.182221 123.44297721 103.83178711 127.84936523 C103.04545898 128.67694336 102.25913086 129.50452148 101.44897461 130.35717773 C94.87506899 137.01844423 94.87506899 137.01844423 90.65600586 137.74389648 C87.58178711 137.59936523 87.58178711 137.59936523 85.14428711 136.03686523 C83.03590801 132.74779384 82.76618009 131.45496205 83.58178711 127.59936523 C85.18017578 125.53198242 85.18017578 125.53198242 87.12475586 123.39624023 C87.76823975 122.68306641 88.41172363 121.96989258 89.07470703 121.23510742 C89.57204346 120.6953125 90.06937988 120.15551758 90.58178711 119.59936523 C89.31058517 119.59127838 88.03938324 119.58319153 86.72966003 119.57485962 C74.76627782 119.49746987 62.80301034 119.40974884 50.83977795 119.31183815 C44.68894404 119.26183195 38.53812768 119.21550229 32.38720703 119.17749023 C26.45437619 119.14069209 20.52169058 119.09434706 14.58898354 119.04130173 C12.32233534 119.02272865 10.05565597 119.00763155 7.78896141 118.99602127 C4.6210369 118.97920871 1.45344714 118.95018564 -1.71435547 118.91821289 C-2.65734497 118.9160527 -3.60033447 118.91389252 -4.57189941 118.91166687 C-5.86545097 118.89492165 -5.86545097 118.89492165 -7.18513489 118.87783813 C-7.93455258 118.87230738 -8.68397028 118.86677662 -9.4560976 118.86107826 C-11.41821289 118.59936523 -11.41821289 118.59936523 -14.41821289 116.59936523 C-15.35217199 113.79748792 -15.55158974 112.07136882 -15.57211304 109.17214966 C-15.5807135 108.26652283 -15.58931396 107.360896 -15.59817505 106.42782593 C-15.602435 105.43658722 -15.60669495 104.44534851 -15.61108398 103.42407227 C-15.61926147 102.37828003 -15.62743896 101.33248779 -15.63586426 100.25500488 C-15.6607082 96.78906835 -15.67722971 93.32317267 -15.69165039 89.85717773 C-15.69697407 88.67465298 -15.70229774 87.49212822 -15.70778275 86.27376938 C-15.73450697 80.01756183 -15.75388628 73.76137421 -15.76831055 67.50512695 C-15.78497789 61.03616469 -15.82977587 54.56770994 -15.88068199 48.0989399 C-15.91429199 43.13015133 -15.92588102 38.16148433 -15.93153763 33.19259262 C-15.93826481 30.80751531 -15.95352461 28.42244641 -15.97742844 26.0374794 C-16.00895429 22.70237704 -16.00913536 19.36865875 -16.00170898 16.03344727 C-16.01811432 15.04625702 -16.03451965 14.05906677 -16.05142212 13.04196167 C-16.01194736 8.71761178 -15.80503901 6.23842339 -13.53288269 2.48469543 C-9.01523661 -0.24986557 -5.19059663 -0.07812227 0 0 Z " fill="#FF0000" transform="translate(118.418212890625,102.400634765625)"/>
</svg>
